<svg width="70" height="41" viewBox="0 0 70 41" fill="none" xmlns="http://www.w3.org/2000/svg">
<g clip-path="url(#clip0_0_405)">
<path d="M50.052 24.5777H20.1277C19.4419 24.5777 18.8809 24.0167 18.8809 23.3309V18.3435C18.8809 17.6578 19.4419 17.0967 20.1277 17.0967H50.052C50.7377 17.0967 51.2988 17.6578 51.2988 18.3435V23.3309C51.2988 24.0167 50.7377 24.5777 50.052 24.5777Z" fill="#FD0054"/>
<path d="M54.1035 37.3579V4.31652C54.1035 2.43066 55.6465 0.887695 57.5323 0.887695C59.4182 0.887695 60.9612 2.43066 60.9612 4.31652V37.3579C60.9612 39.2438 59.4182 40.7867 57.5323 40.7867C55.6465 40.7867 54.1035 39.2438 54.1035 37.3579Z" fill="#FD0054"/>
<path d="M66.8847 10.8623H65.0144C64.3287 10.8623 63.7676 11.4234 63.7676 12.1091V29.565C63.7676 30.2507 64.3287 30.8118 65.0144 30.8118H66.8847C68.5991 30.8118 70.0018 29.4091 70.0018 27.6947V13.9794C70.0018 12.265 68.5991 10.8623 66.8847 10.8623Z" fill="#FD0054"/>
<path d="M16.0744 37.3579V4.31652C16.0744 2.43066 14.5315 0.887695 12.6456 0.887695C10.7598 0.887695 9.2168 2.43066 9.2168 4.31652V37.3579C9.2168 39.2438 10.7598 40.7867 12.6456 40.7867C14.5315 40.7867 16.0744 39.2438 16.0744 37.3579Z" fill="#FD0054"/>
<path d="M5.16511 10.8623H3.29485C1.58043 10.8623 0.177734 12.265 0.177734 13.9794V27.6947C0.177734 29.4091 1.58043 30.8118 3.29485 30.8118H5.16511C5.85088 30.8118 6.41196 30.2507 6.41196 29.565V12.1091C6.41196 11.4234 5.85088 10.8623 5.16511 10.8623Z" fill="#FD0054"/>
</g>
<defs>
<clipPath id="clip0_0_405">
<rect width="69.8232" height="39.899" fill="white" transform="translate(0.177734 0.887695)"/>
</clipPath>
</defs>
</svg>
