<svg width="33" height="34" viewBox="0 0 33 34" fill="none" xmlns="http://www.w3.org/2000/svg">
<path fill-rule="evenodd" clip-rule="evenodd" d="M16.5653 8.37058C11.9097 8.37058 8.15443 12.1258 8.15443 16.7813C8.15443 21.4369 11.9097 25.1921 16.5653 25.1921C21.221 25.1921 24.9763 21.4369 24.9763 16.7813C24.9763 12.1258 21.221 8.37058 16.5653 8.37058ZM16.5653 22.2494C13.5567 22.2494 11.0971 19.7972 11.0971 16.7813C11.0971 13.7655 13.5494 11.3132 16.5653 11.3132C19.5813 11.3132 22.0335 13.7655 22.0335 16.7813C22.0335 19.7972 19.5739 22.2494 16.5653 22.2494ZM27.2821 8.02654C27.2821 9.11723 26.4037 9.98831 25.3203 9.98831C24.2296 9.98831 23.3585 9.10991 23.3585 8.02654C23.3585 6.94317 24.2369 6.06476 25.3203 6.06476C26.4037 6.06476 27.2821 6.94317 27.2821 8.02654ZM32.8528 10.0176C32.7283 7.38969 32.1281 5.06191 30.2029 3.14406C28.285 1.2262 25.9572 0.625958 23.3292 0.494197C20.6207 0.340476 12.5026 0.340476 9.79415 0.494197C7.17352 0.618638 4.84569 1.21888 2.92048 3.13674C0.995267 5.05459 0.40233 7.38237 0.270567 10.0103C0.116842 12.7187 0.116842 20.8366 0.270567 23.5451C0.39501 26.173 0.995267 28.5007 2.92048 30.4186C4.84569 32.3365 7.1662 32.9367 9.79415 33.0685C12.5026 33.2222 20.6207 33.2222 23.3292 33.0685C25.9572 32.944 28.285 32.3438 30.2029 30.4186C32.1208 28.5007 32.721 26.173 32.8528 23.5451C33.0065 20.8366 33.0065 12.726 32.8528 10.0176H32.8528ZM29.3537 26.4511C28.7828 27.8859 27.6774 28.9912 26.2353 29.5695C24.0759 30.4259 18.9517 30.2283 16.5653 30.2283C14.179 30.2283 9.04749 30.4186 6.89535 29.5695C5.46059 28.9985 4.35524 27.8932 3.77694 26.4511C2.92048 24.2917 3.11813 19.1677 3.11813 16.7813C3.11813 14.395 2.9278 9.26363 3.77694 7.11153C4.34792 5.6768 5.45327 4.57147 6.89535 3.99319C9.05481 3.13674 14.179 3.33438 16.5653 3.33438C18.9517 3.33438 24.0832 3.14406 26.2353 3.99319C27.6701 4.56415 28.7754 5.66948 29.3537 7.11153C30.2102 9.27095 30.0126 14.395 30.0126 16.7813C30.0126 19.1677 30.2102 24.299 29.3537 26.4511Z" fill="#909090"/>
</svg>
