<svg width="34" height="34" viewBox="0 0 34 34" fill="none" xmlns="http://www.w3.org/2000/svg">
<path fill-rule="evenodd" clip-rule="evenodd" d="M31.4462 0.378906H3.32929C2.04093 0.378906 0.994141 1.44032 0.994141 2.74329V30.8084C0.994141 32.1114 2.04093 33.1728 3.32929 33.1728H31.4462C32.7345 33.1728 33.7887 32.1114 33.7887 30.8084V2.74329C33.7887 1.44032 32.7345 0.378906 31.4462 0.378906ZM10.9057 28.4879H6.04508V12.8376H10.913V28.4879H10.9057ZM8.47539 10.7002C6.91618 10.7002 5.65711 9.43382 5.65711 7.88197C5.65711 6.33011 6.91618 5.06374 8.47539 5.06374C10.0273 5.06374 11.2937 6.33011 11.2937 7.88197C11.2937 9.44114 10.0346 10.7002 8.47539 10.7002H8.47539ZM29.1257 28.4879H24.2651V20.8751C24.2651 19.0597 24.2285 16.7246 21.7396 16.7246C19.2068 16.7246 18.8188 18.701 18.8188 20.7433V28.4879H13.9582V12.8376H18.6212V14.9751H18.6871C19.3386 13.7453 20.9271 12.4497 23.2915 12.4497C28.2107 12.4497 29.1257 15.6925 29.1257 19.9088V28.4879Z" fill="#909090"/>
</svg>
