<svg width="39" height="32" viewBox="0 0 39 32" fill="none" xmlns="http://www.w3.org/2000/svg">
<path d="M34.1522 8.34388C34.176 8.6768 34.176 9.00979 34.176 9.34271C34.176 19.4971 26.4471 31.1973 12.3209 31.1973C7.96894 31.1973 3.92614 29.9369 0.525391 27.7491C1.14373 27.8204 1.7382 27.8442 2.38033 27.8442C5.97126 27.8442 9.27691 26.6314 11.9167 24.5625C8.5397 24.4911 5.70971 22.2795 4.73465 19.2355C5.21032 19.3068 5.68591 19.3544 6.18537 19.3544C6.87501 19.3544 7.56472 19.2593 8.20677 19.0929C4.68715 18.3794 2.04733 15.2879 2.04733 11.5543V11.4592C3.06989 12.03 4.25906 12.3867 5.51938 12.4342C3.4504 11.0549 2.09492 8.70059 2.09492 6.03711C2.09492 4.61029 2.47535 3.30234 3.14127 2.16085C6.92252 6.8219 12.6063 9.8658 18.9796 10.1988C18.8607 9.62804 18.7894 9.03358 18.7894 8.43904C18.7894 4.206 22.2139 0.757812 26.4708 0.757812C28.6824 0.757812 30.68 1.68526 32.0832 3.18346C33.8191 2.85054 35.4838 2.20843 36.9583 1.32856C36.3875 3.11216 35.1747 4.61036 33.5814 5.56153C35.1272 5.39514 36.6254 4.96699 38.0047 4.37253C36.9585 5.89444 35.6504 7.2499 34.1522 8.34388V8.34388Z" fill="#909090"/>
</svg>
