<svg width="41" height="29" viewBox="0 0 41 29" fill="none" xmlns="http://www.w3.org/2000/svg">
<path fill-rule="evenodd" clip-rule="evenodd" d="M40.0744 4.53581C39.6146 2.80461 38.2599 1.44118 36.5399 0.978477C33.4222 0.137695 20.9207 0.137695 20.9207 0.137695C20.9207 0.137695 8.41926 0.137695 5.30151 0.978477C3.58148 1.44125 2.2268 2.80461 1.76702 4.53581C0.931641 7.6737 0.931641 14.2206 0.931641 14.2206C0.931641 14.2206 0.931641 20.7675 1.76702 23.9054C2.2268 25.6366 3.58148 26.9432 5.30151 27.4059C8.41926 28.2467 20.9207 28.2467 20.9207 28.2467C20.9207 28.2467 33.4221 28.2467 36.5399 27.4059C38.2599 26.9432 39.6146 25.6366 40.0744 23.9054C40.9098 20.7675 40.9098 14.2206 40.9098 14.2206C40.9098 14.2206 40.9098 7.6737 40.0744 4.53581V4.53581ZM16.832 20.1647V8.2765L27.2808 14.2208L16.832 20.1647V20.1647Z" fill="#909090"/>
</svg>
